{"accessors":[{"bufferView":0,"componentType":5126,"count":1,"max":[0.0],"min":[0.0],"normalized":false,"type":"SCALAR"},{"bufferView":1,"componentType":5126,"count":1,"max":[-47.0,-157.0,0.0],"min":[-47.0,-157.0,0.0],"normalized":false,"type":"VEC3"},{"bufferView":2,"componentType":5126,"count":2,"max":[1.5],"min":[0.0],"normalized":false,"type":"SCALAR"},{"bufferView":3,"componentType":5126,"count":2,"max":[39.0,-157.0,0.0],"min":[-47.0,-157.0,0.0],"normalized":false,"type":"VEC3"}],"animations":[{"channels":[{"sampler":0,"target":{"node":24,"path":"translation"}}],"name":"RESET","samplers":[{"input":0,"interpolation":"LINEAR","output":1}]},{"channels":[{"sampler":0,"target":{"node":24,"path":"translation"}}],"name":"move","samplers":[{"input":2,"interpolation":"LINEAR","output":3}]}],"asset":{"generator":"Godot Engine v4.5.1.stable.official@f62fdbde15035c5576dad93e586201f4d41ef0cb","version":"2.0"},"bufferViews":[{"buffer":0,"byteLength":4},{"buffer":0,"byteLength":12,"byteOffset":4},{"buffer":0,"byteLength":8,"byteOffset":16},{"buffer":0,"byteLength":24,"byteOffset":24}],"buffers":[{"byteLength":48,"uri":"game0.bin"}],"extensionsUsed":["GODOT_single_root"],"nodes":[{"children":[1,3,8,9,12,15,18,21,24,27,31,35,39,43,47,51,54,57,60,64,68,72,76,80,84,88,91,94,98,102,106,110,113,170,174,175,184],"name":"Game"},{"children":[2],"name":"GameManager"},{"name":"ScoreLabel"},{"children":[4,5,6,7],"name":"Player"},{"name":"AnimatedSprite2D"},{"name":"CollisionShape2D"},{"name":"Label"},{"name":"Camera2D"},{"name":"TileMapLayer"},{"children":[10,11],"name":"platform"},{"name":"Sprite2D"},{"name":"CollisionShape2D2"},{"children":[13,14],"name":"platform2"},{"name":"Sprite2D2"},{"name":"CollisionShape2D3"},{"children":[16,17],"name":"platform3"},{"name":"Sprite2D3"},{"name":"CollisionShape2D4"},{"children":[19,20],"name":"platform4"},{"name":"Sprite2D4"},{"name":"CollisionShape2D5"},{"children":[22,23],"name":"platform5"},{"name":"Sprite2D5"},{"name":"CollisionShape2D6"},{"children":[25,26],"name":"platform6"},{"name":"Sprite2D6"},{"name":"CollisionShape2D7"},{"children":[28,29,30],"name":"coin"},{"name":"AnimatedSprite2D2"},{"name":"CollisionShape2D8"},{"name":"PickUpSound"},{"children":[32,33,34],"name":"coin2"},{"name":"AnimatedSprite2D3"},{"name":"CollisionShape2D9"},{"name":"PickUpSound2"},{"children":[36,37,38],"name":"coin3"},{"name":"AnimatedSprite2D4"},{"name":"CollisionShape2D10"},{"name":"PickUpSound3"},{"children":[40,41,42],"name":"coin5"},{"name":"AnimatedSprite2D5"},{"name":"CollisionShape2D11"},{"name":"PickUpSound4"},{"children":[44,45,46],"name":"coin6"},{"name":"AnimatedSprite2D6"},{"name":"CollisionShape2D12"},{"name":"PickUpSound5"},{"children":[48,49,50],"name":"coin7"},{"name":"AnimatedSprite2D7"},{"name":"CollisionShape2D13"},{"name":"PickUpSound6"},{"children":[52,53],"name":"green_fruit"},{"name":"AnimatedSprite2D8"},{"name":"CollisionShape2D14"},{"children":[55,56],"name":"green_fruit2"},{"name":"AnimatedSprite2D9"},{"name":"CollisionShape2D15"},{"children":[58,59],"name":"green_fruit3"},{"name":"AnimatedSprite2D10"},{"name":"CollisionShape2D16"},{"children":[61,62,63],"name":"coin4"},{"name":"AnimatedSprite2D11"},{"name":"CollisionShape2D17"},{"name":"PickUpSound7"},{"children":[65,66,67],"name":"coin8"},{"name":"AnimatedSprite2D12"},{"name":"CollisionShape2D18"},{"name":"PickUpSound8"},{"children":[69,70,71],"name":"coin9"},{"name":"AnimatedSprite2D13"},{"name":"CollisionShape2D19"},{"name":"PickUpSound9"},{"children":[73,74,75],"name":"coin10"},{"name":"AnimatedSprite2D14"},{"name":"CollisionShape2D20"},{"name":"PickUpSound10"},{"children":[77,78,79],"name":"coin11"},{"name":"AnimatedSprite2D15"},{"name":"CollisionShape2D21"},{"name":"PickUpSound11"},{"children":[81,82,83],"name":"coin12"},{"name":"AnimatedSprite2D16"},{"name":"CollisionShape2D22"},{"name":"PickUpSound12"},{"children":[85,86,87],"name":"coin13"},{"name":"AnimatedSprite2D17"},{"name":"CollisionShape2D23"},{"name":"PickUpSound13"},{"children":[89,90],"name":"green_fruit5"},{"name":"AnimatedSprite2D18"},{"name":"CollisionShape2D24"},{"children":[92,93],"name":"green_fruit6"},{"name":"AnimatedSprite2D19"},{"name":"CollisionShape2D25"},{"children":[95,96,97],"name":"coin15"},{"name":"AnimatedSprite2D20"},{"name":"CollisionShape2D26"},{"name":"PickUpSound14"},{"children":[99,100,101],"name":"coin17"},{"name":"AnimatedSprite2D21"},{"name":"CollisionShape2D27"},{"name":"PickUpSound15"},{"children":[103,104,105],"name":"coin18"},{"name":"AnimatedSprite2D22"},{"name":"CollisionShape2D28"},{"name":"PickUpSound16"},{"children":[107,108,109],"name":"coin19"},{"name":"AnimatedSprite2D23"},{"name":"CollisionShape2D29"},{"name":"PickUpSound17"},{"children":[111,112],"name":"green_fruit4"},{"name":"AnimatedSprite2D24"},{"name":"CollisionShape2D30"},{"children":[114,118,122,126,130,134,138,142,146,150,154,158,162,166],"name":"coins"},{"children":[115,116,117],"name":"coin31"},{"name":"AnimatedSprite2D25"},{"name":"CollisionShape2D31"},{"name":"PickUpSound18"},{"children":[119,120,121],"name":"coin25"},{"name":"AnimatedSprite2D26"},{"name":"CollisionShape2D32"},{"name":"PickUpSound19"},{"children":[123,124,125],"name":"coin32"},{"name":"AnimatedSprite2D27"},{"name":"CollisionShape2D33"},{"name":"PickUpSound20"},{"children":[127,128,129],"name":"coin30"},{"name":"AnimatedSprite2D28"},{"name":"CollisionShape2D34"},{"name":"PickUpSound21"},{"children":[131,132,133],"name":"coin29"},{"name":"AnimatedSprite2D29"},{"name":"CollisionShape2D35"},{"name":"PickUpSound22"},{"children":[135,136,137],"name":"coin26"},{"name":"AnimatedSprite2D30"},{"name":"CollisionShape2D36"},{"name":"PickUpSound23"},{"children":[139,140,141],"name":"coin28"},{"name":"AnimatedSprite2D31"},{"name":"CollisionShape2D37"},{"name":"PickUpSound24"},{"children":[143,144,145],"name":"coin27"},{"name":"AnimatedSprite2D32"},{"name":"CollisionShape2D38"},{"name":"PickUpSound25"},{"children":[147,148,149],"name":"coin23"},{"name":"AnimatedSprite2D33"},{"name":"CollisionShape2D39"},{"name":"PickUpSound26"},{"children":[151,152,153],"name":"coin22"},{"name":"AnimatedSprite2D34"},{"name":"CollisionShape2D40"},{"name":"PickUpSound27"},{"children":[155,156,157],"name":"coin21"},{"name":"AnimatedSprite2D35"},{"name":"CollisionShape2D41"},{"name":"PickUpSound28"},{"children":[159,160,161],"name":"coin16"},{"name":"AnimatedSprite2D36"},{"name":"CollisionShape2D42"},{"name":"PickUpSound29"},{"children":[163,164,165],"name":"coin14"},{"name":"AnimatedSprite2D37"},{"name":"CollisionShape2D43"},{"name":"PickUpSound30"},{"children":[167,168,169],"name":"coin20"},{"name":"AnimatedSprite2D38"},{"name":"CollisionShape2D44"},{"name":"PickUpSound31"},{"children":[171,172,173],"name":"coin24"},{"name":"AnimatedSprite2D39"},{"name":"CollisionShape2D45"},{"name":"PickUpSound32"},{"name":"Back"},{"children":[176,180,181,182],"name":"RedSlime"},{"children":[177],"name":"AnimatedSprite2D40"},{"children":[178,179],"name":"killzone"},{"name":"Timer"},{"name":"CollisionShape2D46"},{"name":"RayCastRight"},{"name":"RayCastLeft"},{"children":[183],"name":"HitArea"},{"name":"HitBox"},{"children":[185,186,187],"name":"killzone2"},{"name":"Timer2"},{"name":"CollisionShape2D47"},{"children":[188],"name":"Label2"},{"name":"Label3"}],"scene":0,"scenes":[{"nodes":[0]}]}